<mxfile host="app.diagrams.net" agent="Mozilla/5.0 (Macintosh; Intel Mac OS X 10_15_7) AppleWebKit/537.36 (KHTML, like Gecko) Chrome/136.0.0.0 Safari/537.36" version="27.0.6">
  <diagram name="Page-1" id="EvPnAZxV5-bcBsfejo-d">
    <mxGraphModel dx="231" dy="344" grid="0" gridSize="10" guides="1" tooltips="1" connect="1" arrows="1" fold="1" page="0" pageScale="1" pageWidth="850" pageHeight="1100" math="0" shadow="0">
      <root>
        <mxCell id="0" />
        <mxCell id="1" parent="0" />
        <mxCell id="7jdj44RBNJB_tLbchO3q-2" style="edgeStyle=orthogonalEdgeStyle;rounded=0;orthogonalLoop=1;jettySize=auto;html=1;entryX=0.5;entryY=0;entryDx=0;entryDy=0;" edge="1" parent="1" source="7jdj44RBNJB_tLbchO3q-3" target="7jdj44RBNJB_tLbchO3q-10">
          <mxGeometry relative="1" as="geometry" />
        </mxCell>
        <mxCell id="7jdj44RBNJB_tLbchO3q-3" value="Document Image" style="rounded=1;whiteSpace=wrap;html=1;fillColor=#dae8fc;strokeColor=#6c8ebf;" vertex="1" parent="1">
          <mxGeometry x="557" y="154" width="120" height="60" as="geometry" />
        </mxCell>
        <mxCell id="7jdj44RBNJB_tLbchO3q-4" style="edgeStyle=orthogonalEdgeStyle;rounded=0;orthogonalLoop=1;jettySize=auto;html=1;entryX=0;entryY=0.5;entryDx=0;entryDy=0;" edge="1" parent="1" source="7jdj44RBNJB_tLbchO3q-5" target="7jdj44RBNJB_tLbchO3q-7">
          <mxGeometry relative="1" as="geometry" />
        </mxCell>
        <mxCell id="7jdj44RBNJB_tLbchO3q-5" value="Optional Transfer Learning Module" style="rounded=1;whiteSpace=wrap;html=1;" vertex="1" parent="1">
          <mxGeometry x="557" y="399" width="120" height="60" as="geometry" />
        </mxCell>
        <mxCell id="7jdj44RBNJB_tLbchO3q-6" style="edgeStyle=orthogonalEdgeStyle;rounded=0;orthogonalLoop=1;jettySize=auto;html=1;" edge="1" parent="1" source="7jdj44RBNJB_tLbchO3q-7" target="7jdj44RBNJB_tLbchO3q-12">
          <mxGeometry relative="1" as="geometry" />
        </mxCell>
        <mxCell id="7jdj44RBNJB_tLbchO3q-7" value="&lt;br&gt;&lt;div&gt;CNN / GNN model or deep-learning models&lt;/div&gt;" style="rounded=1;whiteSpace=wrap;html=1;" vertex="1" parent="1">
          <mxGeometry x="750" y="399" width="120" height="60" as="geometry" />
        </mxCell>
        <mxCell id="7jdj44RBNJB_tLbchO3q-8" value="Table Positions Prediction" style="rounded=1;whiteSpace=wrap;html=1;fillColor=#dae8fc;strokeColor=#6c8ebf;" vertex="1" parent="1">
          <mxGeometry x="750" y="151" width="120" height="60" as="geometry" />
        </mxCell>
        <mxCell id="7jdj44RBNJB_tLbchO3q-9" style="edgeStyle=orthogonalEdgeStyle;rounded=0;orthogonalLoop=1;jettySize=auto;html=1;" edge="1" parent="1" source="7jdj44RBNJB_tLbchO3q-10" target="7jdj44RBNJB_tLbchO3q-5">
          <mxGeometry relative="1" as="geometry" />
        </mxCell>
        <mxCell id="7jdj44RBNJB_tLbchO3q-10" value="Preprocessing such as Binarixation, skew correction" style="rounded=1;whiteSpace=wrap;html=1;" vertex="1" parent="1">
          <mxGeometry x="557" y="271" width="120" height="60" as="geometry" />
        </mxCell>
        <mxCell id="7jdj44RBNJB_tLbchO3q-11" style="edgeStyle=orthogonalEdgeStyle;rounded=0;orthogonalLoop=1;jettySize=auto;html=1;" edge="1" parent="1" source="7jdj44RBNJB_tLbchO3q-12" target="7jdj44RBNJB_tLbchO3q-8">
          <mxGeometry relative="1" as="geometry" />
        </mxCell>
        <mxCell id="7jdj44RBNJB_tLbchO3q-12" value="Optional Extra ML-based module" style="rounded=1;whiteSpace=wrap;html=1;" vertex="1" parent="1">
          <mxGeometry x="750" y="275" width="120" height="60" as="geometry" />
        </mxCell>
      </root>
    </mxGraphModel>
  </diagram>
</mxfile>
